# xmcd
#
# Track frame offsets:
# 150
# 10762
# 27122
# 38639
# 67534
# 83900
# 96281
# 111636
# 138456
# 155018
# 170761
# 186127
# 203799
# 223977
# 239302
# 256359
#
# Disc length: 3623 seconds
#
#
# Revision: 0
# Processed by: cddbd v1.5.1PL2 Copyright (c) Steve Scherf et al.
# Submitted via: FreeRIP 2.942 
#
DISCID=de0e2510
DTITLE=AS MAIS TOCADAS DO MOMENTO-AXÉ - AS MAIS TOCADAS DO MOMENTO-AXÉ
DYEAR=2006
DGENRE=Blues
TTITLE0=CORAÇÃO A MIL - LÁ VAI BRASIL - TEMA DO HEXA
TTITLE1=MARGARETH MENESES - NA PONTA DO PÉ
TTITLE2=OS BAMBAZ-QUEBRA REQUEBRA
TTITLE3=PISIRICO - PA
TTITLE4=DANIELA MERCURY - LEVADA BRASILEIRA
TTITLE5=CAFÉ COM PÃO - VIXE MAINHA
TTITLE6=JAMIL - MINHA ESTRELA
TTITLE7=BABADO NOVO - FEITO BOLA DE SABÃO
TTITLE8=IVETE SANGALO - CHORANDO SE FOI
TTITLE9=Araketu - VOU JOGAR
TTITLE10=HARMONIA DO SAMBA - É FOGO
TTITLE11=RAPAZOLLA - O QUE PASSOU PASSOU
TTITLE12=GIL - MOVIMENTO
TTITLE13=GUIGUI GHUETO -  CALMA BANDA
TTITLE14=BATUQUERE - ME DÊ UM BEIXO
TTITLE15=CHICLETE COM BANANA - CHICLETEIRO
EXTD=VAI SER RUIM ASSIM LÁ NA PRAIA, OU MELHOR NA BAHIA.
EXTT0=
EXTT1=
EXTT2=
EXTT3=
EXTT4=
EXTT5=
EXTT6=
EXTT7=
EXTT8=
EXTT9=
EXTT10=
EXTT11=
EXTT12=
EXTT13=
EXTT14=
EXTT15=
PLAYORDER=
